<svg xmlns="http://www.w3.org/2000/svg" version="1.1" xmlns:xlink="http://www.w3.org/1999/xlink" xmlns:svgjs="http://svgjs.com/svgjs" width="1920" height="1080" preserveAspectRatio="none" viewBox="0 0 1920 1080"><g mask="url(&quot;#SvgjsMask1002&quot;)" fill="none"><rect width="1920" height="1080" x="0" y="0" fill="url(#SvgjsLinearGradient1003)"></rect><path d="M1920 0L1511.58 0L1920 14.44z" fill="rgba(255, 255, 255, .1)"></path><path d="M1511.58 0L1920 14.44L1920 20.6L793.7399999999999 0z" fill="rgba(255, 255, 255, .075)"></path><path d="M793.74 0L1920 20.6L1920 608L418.77 0z" fill="rgba(255, 255, 255, .05)"></path><path d="M418.77 0L1920 608L1920 791.72L124.57999999999998 0z" fill="rgba(255, 255, 255, .025)"></path><path d="M0 1080L611.81 1080L0 843.49z" fill="rgba(0, 0, 0, .1)"></path><path d="M0 843.49L611.81 1080L1168.4499999999998 1080L0 511.66z" fill="rgba(0, 0, 0, .075)"></path><path d="M0 511.6600000000001L1168.4499999999998 1080L1621.1799999999998 1080L0 275.9900000000001z" fill="rgba(0, 0, 0, .05)"></path><path d="M0 275.9900000000001L1621.1799999999998 1080L1686.9099999999999 1080L0 107.92000000000013z" fill="rgba(0, 0, 0, .025)"></path></g><defs><mask id="SvgjsMask1002"><rect width="1920" height="1080" fill="#ffffff"></rect></mask><linearGradient x1="10.94%" y1="119.44%" x2="89.06%" y2="-19.44%" gradientUnits="userSpaceOnUse" id="SvgjsLinearGradient1003"><stop stop-color="#0e2a47" offset="0"></stop><stop stop-color="rgba(102, 11, 202, 1)" offset="1"></stop></linearGradient></defs></svg>