<svg xmlns="http://www.w3.org/2000/svg" version="1.1" xmlns:xlink="http://www.w3.org/1999/xlink" xmlns:svgjs="http://svgjs.com/svgjs" width="1920" height="1080" preserveAspectRatio="none" viewBox="0 0 1920 1080"><g mask="url(&quot;#SvgjsMask1026&quot;)" fill="none"><rect width="1920" height="1080" x="0" y="0" fill="rgba(102, 11, 202, 1)"></rect><path d="M0,850.736C158.227,853.083,306.323,765.704,424.337,660.281C532.319,563.82,559.585,414.21,630.178,287.793C708.583,147.385,846.182,36.033,862.275,-123.976C880.011,-300.313,859.121,-513.317,722.051,-625.661C583.305,-739.378,375.983,-671.608,196.602,-669.566C66.928,-668.09,-51.871,-630.297,-180.692,-615.382C-342.872,-596.604,-543.307,-686.293,-658.465,-570.563C-771.767,-456.698,-698.226,-260.32,-693.774,-99.75C-690.058,34.258,-681.255,164.133,-634.609,289.816C-584.973,423.557,-523.212,553.339,-416.325,647.814C-298.26,752.169,-157.556,848.399,0,850.736" fill="#5209a2"></path><path d="M1920 1634.182C2026.403 1632.008 2138.465 1615.438 2220.6530000000002 1547.825 2299.677 1482.815 2331.015 1377.726 2353.176 1277.825 2372.212 1192.014 2357.326 1105.627 2337.755 1019.936 2319.5950000000003 940.421 2281.52 871.708 2243.897 799.342 2194.327 703.9970000000001 2183.755 562.807 2082.051 528.104 1981.4279999999999 493.77 1887.12 597.075 1792.351 645.268 1715.039 684.5840000000001 1641.629 724.596 1578.566 784.145 1509.469 849.391 1439.3319999999999 916.34 1409.6689999999999 1006.626 1376.844 1106.538 1367.9389999999999 1216.865 1403.934 1315.679 1441.279 1418.1979999999999 1518.499 1502.968 1611.348 1560.272 1703.237 1616.983 1812.0430000000001 1636.387 1920 1634.182" fill="#7a0ef2"></path></g><defs><mask id="SvgjsMask1026"><rect width="1920" height="1080" fill="#ffffff"></rect></mask></defs></svg>